<svg width="93" height="14" viewBox="0 0 93 14" fill="none" xmlns="http://www.w3.org/2000/svg">
<g clip-path="url(#clip0)">
<path d="M11.8459 13.8163H8.46138L4.58795 8.01049L2.85807 10.0315V13.7795H0V0.183716H2.89567V5.80576L7.59644 0.183716H11.2818L6.50586 5.76902L11.8459 13.8163Z" fill="white"/>
<path d="M26.8132 13.8163L25.685 11.2073H19.8561L18.6903 13.8163H15.5314L21.5107 0.220459H23.9175L29.8969 13.8163H26.8132ZM24.6697 8.89237L22.7894 4.55642L20.9091 8.89237H24.6697Z" fill="white"/>
<path d="M43.8488 11.3176V13.8163H34.8985V0.220459H37.7942V11.3176H43.8488Z" fill="white"/>
<path d="M62.6142 7.01837C62.6142 11.2808 59.5305 14.0367 55.3938 14.0367C51.2195 14.0367 48.1734 11.3176 48.1734 7.01837C48.1358 2.71916 51.1819 0 55.3938 0C59.5305 0 62.6142 2.71916 62.6142 7.01837ZM51.0691 7.01837C51.0691 9.81102 52.8366 11.5381 55.3938 11.5381C57.9134 11.5381 59.6809 9.81102 59.6809 7.01837C59.6809 4.18898 57.9134 2.49869 55.3938 2.49869C52.8366 2.49869 51.0691 4.18898 51.0691 7.01837Z" fill="white"/>
<path d="M78.1832 4.18898L75.2499 4.33596C75.2499 3.19685 74.4226 2.46194 73.1064 2.46194C71.7901 2.46194 71.038 3.12336 71.038 4.11549C71.038 5.14436 71.8278 5.43832 73.7457 5.87927C76.6037 6.57743 78.484 7.45932 78.484 9.88452C78.484 12.7874 76.1525 14.0367 73.3696 14.0367C70.1355 14.0367 67.8415 12.4934 67.8039 9.66404L70.7372 9.51706C70.7748 10.7664 71.903 11.5748 73.4072 11.5748C74.6858 11.5748 75.5884 11.1339 75.5884 9.99475C75.5884 8.96588 74.573 8.56168 72.7303 8.12074C70.2107 7.49606 68.1423 6.7979 68.1423 4.15223C68.0671 1.91076 69.6842 0 73.0311 0C76.0396 0 78.108 1.58005 78.1832 4.18898Z" fill="white"/>
<path d="M86.9454 2.6824V5.62203H92.2103V8.04723H86.9454V11.3176H93V13.8163H84.0497V0.220459H93V2.6824H86.9454Z" fill="white"/>
</g>
<defs>
<clipPath id="clip0">
<rect width="93" height="14" fill="white"/>
</clipPath>
</defs>
</svg>